# xmcd CD database file
#
# Track frame offsets:
#	150
#	20961
#	41231
#	59588
#	72956
#	88951
#	106821
#	130415
#	145030
#	168260
#	177738
#	200882
#
# Disc length: 3437 seconds
#
# Revision: 0
# Processed by: cddbd v1.5.1PL0 Copyright (c) Steve Scherf et al.
# Submitted via: CDex 1.51
#
DISCID=c00d6b0c
DTITLE=SAXO4 - European Christmas
DYEAR=2004
DGENRE=Jazz
TTITLE0=Adeste Fideles
TTITLE1=Staffan var en stalledräng
TTITLE2=Natal de elvas
TTITLE3=At Christmas everything is possible
TTITLE4=Petit Papa Noel
TTITLE5=Mennyböl Az Angyal
TTITLE6=The first Noel
TTITLE7=Maria durch ein Dornwald ging
TTITLE8=Gloria in excelsis deo
TTITLE9=Oba heidschi bumbeidschi
TTITLE10=Kommet ihr Hirten
TTITLE11=An Fried'n dafrogn
EXTD=YEAR: 2004
EXTT0=
EXTT1=
EXTT2=
EXTT3=
EXTT4=
EXTT5=
EXTT6=
EXTT7=
EXTT8=
EXTT9=
EXTT10=
EXTT11=
PLAYORDER=
